<svg xmlns="http://www.w3.org/2000/svg" width="200" height="60" viewBox="0 0 200 60"><defs><style>.a{fill:#08588f;}.b{fill:#fff;}.c{fill:#307aab;}.d{fill:#9fb7d6;}.e{fill:#6b94bf;}.f{fill:#4482b2;}</style></defs><g transform="translate(70 7)"><path class="a" d="M0,0H5V.9H3.4V6.6c0,2.7,1.3,3.9,3,3.9,1.6,0,3-1,3-4.1V1H7.8V0h4.7V.9H11v6c0,3.1-1.7,4.7-4.7,4.7-2.8,0-4.8-1.3-4.8-5.1V1H0Z" transform="translate(0 1.1)"/><path class="a" d="M2.4,1.2A1.155,1.155,0,0,1,1.2,2.4,1.155,1.155,0,0,1,0,1.2,1.155,1.155,0,0,1,1.2,0,1.155,1.155,0,0,1,2.4,1.2Z" transform="translate(11.9 10.3)"/><path class="a" d="M.1,8.2h1V9.6a3.074,3.074,0,0,0,2.3,1.3A1.817,1.817,0,0,0,5.3,9.1c0-1.9-2.6-2.3-4.2-3.8A3.194,3.194,0,0,1,.1,3,3.043,3.043,0,0,1,3.3.1,3.339,3.339,0,0,1,5.5.7V0h.9V3.1h-1V1.8a2.61,2.61,0,0,0-2-1A1.581,1.581,0,0,0,1.6,2.4c0,1.8,2.6,2,4.2,3.7a3.038,3.038,0,0,1,1,2.3,3.231,3.231,0,0,1-3.4,3.3A4.31,4.31,0,0,1,1,10.9v.8H0V8.2Z" transform="translate(16.6 0.9)"/><path class="a" d="M2.4,1.2A1.155,1.155,0,0,1,1.2,2.4,1.155,1.155,0,0,1,0,1.2,1.155,1.155,0,0,1,1.2,0,1.216,1.216,0,0,1,2.4,1.2Z" transform="translate(24.7 10.3)"/><g transform="translate(1 16)"><path class="a" d="M5.5,8.3c-.624,0-1.016-.336-1.4-1.2l-.368.26A3.609,3.609,0,0,1,1.8,8.3,1.946,1.946,0,0,1,0,6.2C0,5,.6,4.4,2.2,4l1.7-.4V2.5C3.9,1.423,3.475.9,2.6.9a4.245,4.245,0,0,0-2.2.9L.1,1.3A5,5,0,0,1,3.1,0,2.358,2.358,0,0,1,4.912.762,2.988,2.988,0,0,1,5.6,2.8V6c0,.8.307,1.3.8,1.3.041,0,.152-.017.28-.037A4.473,4.473,0,0,1,7.2,7.2v.5A3.2,3.2,0,0,1,5.5,8.3ZM3.9,4.5c-1.59.3-2.3.792-2.3,1.6a1.03,1.03,0,0,0,1,1.1,2.12,2.12,0,0,0,1.3-.6Z" transform="translate(0.1 5)"/><path class="a" d="M0,7.4H1.4V1H0V.2H3.2v.9A4.771,4.771,0,0,1,6.1,0,2.077,2.077,0,0,1,8.3,2.3V7.4H9.7v.8H5.3V7.4H6.6V2.7c0-1.1-.6-1.6-1.4-1.6a3.669,3.669,0,0,0-2,.8V7.4H4.5v.8H0V7.4Z" transform="translate(7.9 5)"/><path class="a" d="M9.1,12.5H4.5a4.76,4.76,0,0,1-3.263-1.113A3.9,3.9,0,0,1,0,8.4c0-2.26,1.57-4.1,3.5-4.1a3.575,3.575,0,0,1,2.4,1V.8H4.5V0H7.7V11.7H9.1v.8ZM4,5.3c-1.3,0-2.1,1.188-2.1,3.1,0,2.19,1.077,3.3,3.2,3.3h.8V6.2A2.8,2.8,0,0,0,4,5.3Z" transform="translate(18 0.7)"/><g transform="translate(33 1)"><path class="a" d="M0,10.4H1.6V.9H0V0H5V.9H3.4v9.5H5v.9H0Z" transform="translate(0.3 0.8)"/><path class="a" d="M.2,7.4H1.6V1H.2V.2H3.4v.9A7.272,7.272,0,0,1,6.5,0a2.087,2.087,0,0,1,2,1.3A6.071,6.071,0,0,1,11.7,0C13.2,0,14,.9,14,2.7V7.4h1.4v.8H10.8V7.4h1.3V3.2c0-1.4-.5-2-1.5-2a4.184,4.184,0,0,0-2.1.9V7.5H9.9v.8H5.4V7.5H6.7v-4c0-1.3-.2-2.3-1.4-2.3a3.7,3.7,0,0,0-2.1.9V7.5H4.5v.8H0V7.4Z" transform="translate(6.2 4)"/><path class="a" d="M.1,7.4H1.5V1H.1V.2H3.3v.9A7.272,7.272,0,0,1,6.4,0a2.188,2.188,0,0,1,2,1.3A6.071,6.071,0,0,1,11.6,0c1.5,0,2.3.9,2.3,2.7V7.4h1.4v.8H10.8V7.4h1.3V3.2c0-1.4-.5-2-1.5-2a4.184,4.184,0,0,0-2.1.9V7.5H9.9v.8H5.4V7.5H6.7v-4c0-1.3-.2-2.3-1.4-2.3a3.7,3.7,0,0,0-2.1.9V7.5H4.5v.8H0V7.4Z" transform="translate(22.1 4)"/><path class="a" d="M4.4,11.3H0v-.8H1.4V4.1H0V3.3H3.1v7.2H4.4v.8ZM2,2.2A1.115,1.115,0,0,1,.9,1.1,1.115,1.115,0,0,1,2,0,1.052,1.052,0,0,1,3.1,1.1,1.115,1.115,0,0,1,2,2.2Z" transform="translate(38 0.9)"/><path class="a" d="M3.9,12.8C1.491,12.8,0,11.658,0,10.6c0-.851.774-1.523,2.3-2-.692-.4-1-.8-1-1.3,0-.57.486-1.019,1.3-1.2L2.9,6C1.175,5.492.3,4.482.3,3A2.852,2.852,0,0,1,1.2.825,3.483,3.483,0,0,1,3.6,0,3.425,3.425,0,0,1,4.7.1a1.977,1.977,0,0,1,.35.05A1.978,1.978,0,0,0,5.4.2H8V.9H6.6a3.148,3.148,0,0,1,.8,2A2.781,2.781,0,0,1,6.6,5,3.9,3.9,0,0,1,4.2,6.219a1.892,1.892,0,0,0-1,.381c-.1,0-.1.1-.1.2,0,.455.8.683,1.732.947A6.105,6.105,0,0,1,7.4,8.9a1.646,1.646,0,0,1,.5,1.3C7.9,11.779,6.33,12.8,3.9,12.8ZM2.8,9c-.869.58-1.2.983-1.3,1.6a1.08,1.08,0,0,0,.626.946A3.461,3.461,0,0,0,3.8,11.9a4.455,4.455,0,0,0,1.8-.3.938.938,0,0,0,.6-.8c0-.686-.763-1.09-3.4-1.8ZM3.7.7C2.635.7,2,1.56,2,3c0,1.458.667,2.4,1.7,2.4,1.065,0,1.7-.86,1.7-2.3C5.4,1.575,4.78.7,3.7.7Z" transform="translate(42.9 4)"/><path class="a" d="M.1,7.5H1.5V1.1H.1V.3H3.3V1.6h0C4.2.4,4.7,0,5.2,0A1.469,1.469,0,0,1,6.5.8a9.33,9.33,0,0,1-.7,2C5.3,2,5.1,1.7,4.5,1.7c-.5,0-.9.3-1.3.9V7.4H4.6v.8H0V7.5Z" transform="translate(51.4 3.9)"/><path class="a" d="M5.5,8.3c-.568,0-.974-.348-1.4-1.2A4.245,4.245,0,0,1,1.8,8.3,1.946,1.946,0,0,1,0,6.2C0,5,.6,4.4,2.2,4l1.7-.4V2.5C3.9,1.379,3.511.9,2.6.9a4.245,4.245,0,0,0-2.2.9L.1,1.3A5,5,0,0,1,3.1,0C4.665,0,5.6,1.047,5.6,2.8V6c0,.8.307,1.3.8,1.3.041,0,.152-.017.28-.037A4.473,4.473,0,0,1,7.2,7.2v.5A3.2,3.2,0,0,1,5.5,8.3ZM4,4.3c-1.691.4-2.4.891-2.3,1.6a1.158,1.158,0,0,0,.286.785A.953.953,0,0,0,2.7,7,2.12,2.12,0,0,0,4,6.4Z" transform="translate(58.6 4.1)"/><path class="a" d="M0,2.9,2.8,0V2.2H5v.7H2.8V7.5c0,1.3.3,1.8,1.1,1.8S5,8.7,5.2,8.7a.215.215,0,0,1,.2.2,2.206,2.206,0,0,1-2.1,1.3c-1.4,0-2.2-.9-2.2-2.6V2.9Z" transform="translate(65.8 2.1)"/><path class="a" d="M4.5,11.3H0v-.8H1.4V4.1H0V3.3H3.1v7.2H4.5v.8ZM2.1,2.2A1.115,1.115,0,0,1,1,1.1,1.115,1.115,0,0,1,2.1,0,1.115,1.115,0,0,1,3.2,1.1,1.115,1.115,0,0,1,2.1,2.2Z" transform="translate(71.9 0.9)"/><path class="a" d="M4.4,8.4A4.2,4.2,0,1,1,4.4,0,4.209,4.209,0,0,1,8.8,4.2a4.071,4.071,0,0,1-1.3,3A4.506,4.506,0,0,1,4.4,8.4ZM4.4.8a2.073,2.073,0,0,0-1.763.912A4.344,4.344,0,0,0,2,4.2a4.342,4.342,0,0,0,.638,2.487A2.073,2.073,0,0,0,4.4,7.6a2.073,2.073,0,0,0,1.763-.912A4.342,4.342,0,0,0,6.8,4.2a4.344,4.344,0,0,0-.638-2.488A2.073,2.073,0,0,0,4.4.8Z" transform="translate(76.9 4)"/><path class="a" d="M.1,7.4H1.5V1H.1V.2H3.3v.9A4.771,4.771,0,0,1,6.2,0,2.077,2.077,0,0,1,8.4,2.3V7.4H9.8v.8H5.4V7.4H6.6V2.7c0-1.1-.6-1.6-1.4-1.6a3.669,3.669,0,0,0-2,.8V7.4H4.5v.8H0V7.4Z" transform="translate(86.2 4)"/></g></g><g transform="translate(31)"><path class="a" d="M9.9,10.5a6.359,6.359,0,0,1-4.1,1.4A5.68,5.68,0,0,1,0,6.1,5.753,5.753,0,0,1,5.9.1,7.635,7.635,0,0,1,8.6.6L8.7,0h.7V3.3H8.6A2.639,2.639,0,0,0,5.8,1.1C3.6,1.1,2.2,3,2.2,5.9,2.2,9,3.9,11,6.3,11A6.106,6.106,0,0,0,9.9,9.6v.9Z" transform="translate(0.6 0.8)"/><path class="a" d="M4.5,11.3H0v-.8H1.5V4.1H.1V3.3H3.2v7.2H4.5v.8ZM2.2,2.2A1.115,1.115,0,0,1,1.1,1.1,1.115,1.115,0,0,1,2.2,0,1.276,1.276,0,0,1,3.3,1.1,1.115,1.115,0,0,1,2.2,2.2Z" transform="translate(11.4 1.2)"/><path class="a" d="M0,2.9,2.8,0V2.2H5V3H2.8V7.6c0,1.3.3,1.8,1.1,1.8S5,8.8,5.2,8.8c.1,0,.2.2.2.2a2.206,2.206,0,0,1-2.1,1.3c-1.4,0-2.2-.9-2.2-2.6V3H0Z" transform="translate(16.8 2.4)"/><path class="a" d="M4.4,11.3H0v-.8H1.4V4.1H0V3.3H3.1v7.2H4.4v.8ZM2.1,2.2A1.115,1.115,0,0,1,1,1.1,1.115,1.115,0,0,1,2.1,0,1.276,1.276,0,0,1,3.2,1.1,1.115,1.115,0,0,1,2.1,2.2Z" transform="translate(23 1.2)"/><path class="a" d="M.3,0H6.9V.3L2.4,7.1h4V5.7h.7V7.8H0V7.5L4.5.7H1V1.8H.3Z" transform="translate(28.1 4.6)"/><path class="a" d="M4.2,8.4A3.982,3.982,0,0,1,1.088,7.025,4.677,4.677,0,0,1,0,4C0,1.57,1.413,0,3.6,0,5.494,0,6.764,1.276,7.086,3.5H2a5,5,0,0,0,.735,2.838A2.316,2.316,0,0,0,4.7,7.4a4.793,4.793,0,0,0,2.6-.9l-.1.9A4.847,4.847,0,0,1,4.2,8.4ZM3.5.8c-.973,0-1.5.654-1.6,2H5.3C5.1,1.473,4.491.8,3.5.8Z" transform="translate(36.1 4.3)"/><path class="a" d="M0,7.4H1.4V1H0V.2H3.2v.9A4.771,4.771,0,0,1,6.1,0,2.077,2.077,0,0,1,8.3,2.3V7.4H9.7v.8H5.3V7.4H6.6V2.7C6.6,1.6,6,1,5.2,1a3.669,3.669,0,0,0-2,.8V7.3H4.5v.8H0Z" transform="translate(44.1 4.3)"/><path class="a" d="M.1,5.7H.5A2.3,2.3,0,0,0,2.6,7.6c.8,0,1.4-.4,1.4-1C4,5.4,2.1,5.4.8,4A2.465,2.465,0,0,1,0,2.3,2.467,2.467,0,0,1,2.6,0,2.518,2.518,0,0,1,4.2.5V.1h.6V2.2H4.3A1.516,1.516,0,0,0,2.7.9a1.126,1.126,0,0,0-1.2,1c0,1.1,2,1.4,3.3,2.7a2.13,2.13,0,0,1,.7,1.6c0,1.4-1.1,2.3-2.7,2.3a3.117,3.117,0,0,1-2-.6l-.1.6H.1V5.7Z" transform="translate(54.7 4.3)"/><path class="a" d="M.1,11.7H1.5V.8H.1V0H3.3V5.4A5.193,5.193,0,0,1,6.2,4.3,2.158,2.158,0,0,1,8.4,6.7v5H9.8v.8H5.3v-.8H6.6V7.1A1.518,1.518,0,0,0,5.2,5.4a3.975,3.975,0,0,0-2,.8v5.5H4.5v.8H0v-.8Z" transform="translate(60.7)"/><path class="a" d="M4.5,11.3H0v-.8H1.5V4.1H.1V3.3H3.2v7.2H4.5v.8ZM2.2,2.2A1.115,1.115,0,0,1,1.1,1.1,1.115,1.115,0,0,1,2.2,0,1.276,1.276,0,0,1,3.3,1.1,1.115,1.115,0,0,1,2.2,2.2Z" transform="translate(71.2 1.2)"/><path class="a" d="M4.5,12.8H0V12H1.4V1H0V.2H3.2V1l0,0A2.532,2.532,0,0,1,4.3.2,3.74,3.74,0,0,1,5.5,0,3.529,3.529,0,0,1,7.9.962,4.185,4.185,0,0,1,9.1,4.1a4.935,4.935,0,0,1-.862,2.862A3.591,3.591,0,0,1,5.2,8.4a3.735,3.735,0,0,1-2.1-.7V12H4.5v.8ZM5,.9c-.718,0-1.122.224-1.8,1V6.6A2.389,2.389,0,0,0,5.1,7.7c1.276,0,2.1-1.217,2.1-3.1C7.2,2.352,6.337.9,5,.9Z" transform="translate(76.6 4.3)"/></g><g transform="translate(1 34)"><path class="a" d="M.1,8.1H1V9.5a3.074,3.074,0,0,0,2.3,1.3A1.817,1.817,0,0,0,5.2,9C5.2,7.1,2.6,6.7,1,5.2A3.194,3.194,0,0,1,0,2.9,3.043,3.043,0,0,1,3.2,0,4.032,4.032,0,0,1,5.4.6V0h1V3.1h-1V1.7a2.61,2.61,0,0,0-2-1A1.581,1.581,0,0,0,1.6,2.3C1.6,4.1,4.2,4.4,5.8,6a3.038,3.038,0,0,1,1,2.3,3.231,3.231,0,0,1-3.4,3.3A4.31,4.31,0,0,1,1,10.8v.9H.1Z" transform="translate(0 0.3)"/><path class="a" d="M4.2,8.4A3.982,3.982,0,0,1,1.088,7.025,4.677,4.677,0,0,1,0,4C0,1.57,1.413,0,3.6,0,5.494,0,6.764,1.276,7.086,3.5H2a5,5,0,0,0,.735,2.838A2.316,2.316,0,0,0,4.7,7.4a5.014,5.014,0,0,0,2.6-.9l-.1.9A4.847,4.847,0,0,1,4.2,8.4ZM3.5.8c-.973,0-1.5.654-1.6,2H5.3C5.1,1.473,4.491.8,3.5.8Z" transform="translate(8 3.6)"/><path class="a" d="M0,7.5H1.4V1.1H0V.3H3.2V1.6h0C4.1.4,4.6,0,5.1,0A1.469,1.469,0,0,1,6.4.8a5.91,5.91,0,0,1-.7,2C5.2,2,5,1.7,4.4,1.7c-.5,0-.9.3-1.3.9V7.5H4.5v.8H0Z" transform="translate(16 3.5)"/><path class="a" d="M.1,0h4V.8h-1L5,5.3,6.6.8H5.4V0h3V.8H7.3L4.6,8.1H4.2L1,.8H0V0Z" transform="translate(23 3.8)"/><path class="a" d="M0,7.2H1.4V.8H0V0H3.1V7.2H4.5V8H0Z" transform="translate(32.2 3.8)"/><path class="a" d="M6.6,2.4H6A1.839,1.839,0,0,0,4.1.7C2.8.7,2,1.6,2,3.7,2,6,2.9,7.3,4.5,7.3a3.744,3.744,0,0,0,2.2-.9c.2,0,.3.3.3.5A3.6,3.6,0,0,1,3.9,8.4,4.1,4.1,0,0,1,0,4,3.787,3.787,0,0,1,3.8,0a3.944,3.944,0,0,1,2,.5L5.9,0h.6V2.4Z" transform="translate(37.4 3.7)"/><path class="a" d="M4.2,8.4A3.982,3.982,0,0,1,1.088,7.025,4.677,4.677,0,0,1,0,4C0,1.57,1.413,0,3.6,0,5.494,0,6.764,1.276,7.086,3.5H2a5,5,0,0,0,.735,2.838A2.316,2.316,0,0,0,4.7,7.4a4.793,4.793,0,0,0,2.6-.9l-.1.9A4.847,4.847,0,0,1,4.2,8.4ZM3.4.8c-.973,0-1.5.654-1.6,2H5.2C5,1.473,4.391.8,3.4.8Z" transform="translate(45.5 3.6)"/><path class="a" d="M.1,5.7H.5A2.3,2.3,0,0,0,2.6,7.6c.8,0,1.4-.4,1.4-1C4,5.4,2.1,5.4.8,4A2.465,2.465,0,0,1,0,2.3,2.467,2.467,0,0,1,2.6,0,2.914,2.914,0,0,1,4.2.5V.1h.6V2.2H4.3A1.516,1.516,0,0,0,2.7.9a1.126,1.126,0,0,0-1.2,1C1.5,3,3.6,3.3,4.8,4.6a2.13,2.13,0,0,1,.7,1.6c0,1.4-1.1,2.3-2.7,2.3a3.117,3.117,0,0,1-2-.6l-.1.5H.2V5.7Z" transform="translate(53.7 3.6)"/><path class="a" d="M2.2,1.1A1.11,1.11,0,0,1,1.1,2.2,1.11,1.11,0,0,1,0,1.1,1.11,1.11,0,0,1,1.1,0,1.182,1.182,0,0,1,2.2,1.1Z" transform="translate(33.2 0.5)"/></g></g><path class="b" d="M28.1,56.2A28.1,28.1,0,1,1,56.2,28.1,28.125,28.125,0,0,1,28.1,56.2Z" transform="translate(1.9 1.9)"/><g transform="translate(8 8)"><path class="c" d="M39.4.5c-.3.1-.7.2-1,.3a19.978,19.978,0,0,1,2.9,10.5A20.2,20.2,0,1,1,4.1.4a6.9,6.9,0,0,1-1-.4A22.768,22.768,0,0,0,0,11.3,21.2,21.2,0,1,0,39.4.5Z" transform="translate(0.8 10.7)"/><path class="c" d="M1,4.8a20.161,20.161,0,0,1,24.6.8l1.2-.3A20.936,20.936,0,0,0,12.8,0,20.989,20.989,0,0,0,0,4.3c.2.1.3.1.5.2A2.186,2.186,0,0,0,1,4.8Z" transform="translate(9.3 0.8)"/></g><path class="d" d="M30,60a29.906,29.906,0,1,1,11.691-2.353A29.9,29.9,0,0,1,30,60ZM30,1.9A28.1,28.1,0,1,0,58.1,30,28.132,28.132,0,0,0,30,1.9Z"/><path class="e" d="M5.7,0H0C.1.2.2.3.3.5A2.982,2.982,0,0,0,2,1.7c1,.3,1.6.5,2.1.7l.6.2a1.44,1.44,0,0,1,1,.6V0Z" transform="translate(24.1 34.8)"/><g transform="translate(23 28)"><path class="f" d="M6,4.2,5.6,4l-.2-.6-.5-.2-.6-.5L4,3.1l-.5.1-.3.4L2.8,4l-.6.3L1.8,5l-.2.3-.4.3L1,5.4l-.2.2-.3.5A13.044,13.044,0,0,1,.2,4.8C.1,3.6,0,2.2,0,.7A32.854,32.854,0,0,1,6.3,0V4.5Q6.15,4.5,6,4.2Z" transform="translate(0.5 0.4)"/><path class="f" d="M5.6,1.7a1.612,1.612,0,0,1,.7-.4V.7A32.854,32.854,0,0,0,0,0V1.7c.1,0,.1.1.2.1a1.33,1.33,0,0,0,.8.3,1.329,1.329,0,0,0,.7-.3,2.144,2.144,0,0,1,1.2-.4A1.82,1.82,0,0,1,4,1.8a1.33,1.33,0,0,0,.8.3A1.039,1.039,0,0,0,5.6,1.7Z" transform="translate(7.2 0.4)"/><path class="f" d="M0,.4V2.1c.1,0,.1.1.2.1a1.33,1.33,0,0,0,.8.3,1.329,1.329,0,0,0,.7-.3,2.144,2.144,0,0,1,1.2-.4A1.82,1.82,0,0,1,4,2.2a1.33,1.33,0,0,0,.8.3,1.072,1.072,0,0,0,.6-.2A3.173,3.173,0,0,0,6,.3V.2H6A1.911,1.911,0,0,1,4.8.7,1.9,1.9,0,0,1,3.6.3,1.493,1.493,0,0,0,2.9,0,3.178,3.178,0,0,0,2,.3,1.82,1.82,0,0,1,.9.7,1.613,1.613,0,0,1,0,.4Z" transform="translate(7.2 5)"/></g><g transform="translate(3 3)"><path class="a" d="M0,.41a.774.774,0,0,0,.3.1l.1.1.1.1A1.689,1.689,0,0,0,1,.51a4.709,4.709,0,0,1,.5-.2C.6.21.5.51,0,.41Z" transform="translate(25.3 15.19)"/><path class="a" d="M.158,2.4A24.632,24.632,0,0,1,.858,0,3.986,3.986,0,0,0,.158,2.4Z" transform="translate(10.642 28.6)"/><path class="a" d="M11.3,12a8.341,8.341,0,0,1-1.2-.8A3.454,3.454,0,0,1,8.9,7.4c.2-.8.6-1.3.5-2.1A2.577,2.577,0,0,0,8.6,4,9.089,9.089,0,0,0,5.2,2.2,18.154,18.154,0,0,1,.4,0a1.6,1.6,0,0,0,1,2A2.649,2.649,0,0,0,0,2.7,3.6,3.6,0,0,0,2.1,3.8a2.126,2.126,0,0,0-.9,1,7.052,7.052,0,0,0,2.5.6,6.47,6.47,0,0,0-.8.9A10.539,10.539,0,0,0,5.5,7,4.561,4.561,0,0,0,4.3,8.2a10,10,0,0,0,2.6.5,4.673,4.673,0,0,0-1.4,1.4,4.709,4.709,0,0,0,2.4.5A4.2,4.2,0,0,0,7,12a7.35,7.35,0,0,0,2.1,0,3.25,3.25,0,0,0-.7,2,5.374,5.374,0,0,0,2.1-.5,2.917,2.917,0,0,0,.1,1.6,4.649,4.649,0,0,1,.9-.3A15.207,15.207,0,0,1,11.3,12Z" transform="translate(8.5 9)"/><path class="a" d="M11.4,0C10.2,1.1,8.3,1.4,6.3,2A10.448,10.448,0,0,0,2.5,3.9a1.579,1.579,0,0,0-.7,1.5c0,.9.2,1.2.2,2.4a3.389,3.389,0,0,1-.6,2,5.669,5.669,0,0,1-1.3,1c0,.7-.1,1.5-.1,2.3a4.179,4.179,0,0,0,1,.4,2.917,2.917,0,0,0,.1-1.6,3.845,3.845,0,0,0,2.1.5,5.332,5.332,0,0,0-.7-2,7.35,7.35,0,0,0,2.1,0A3.067,3.067,0,0,0,3.7,9a7.8,7.8,0,0,0,2.4-.5A4.673,4.673,0,0,0,4.7,7.1a10,10,0,0,0,2.6-.5A4.561,4.561,0,0,0,6.1,5.4a7.434,7.434,0,0,0,2.6-.7,3.45,3.45,0,0,0-.8-.9,6.566,6.566,0,0,0,2.5-.6,2.836,2.836,0,0,0-.9-1C11.4,1.8,11.4.8,11.4,0Z" transform="translate(34.2 10.3)"/><path class="a" d="M19.4,3.2A17.818,17.818,0,0,0,9.3,0,17.442,17.442,0,0,0,0,2.7,2.715,2.715,0,0,1,1.2,4.4,3.235,3.235,0,0,1,1,6.5a3.206,3.206,0,0,0,.2,3,3.786,3.786,0,0,0,2.4,1.6h0a29.834,29.834,0,0,1,3.3-.4h0a2.335,2.335,0,0,1,1-1.2.913.913,0,0,0,.3-1.3.877.877,0,0,0-.7-.6c-.3-.1-1.3-.3-1.3.4A1.093,1.093,0,0,1,6,7c.1-.6,1.1-.7,1.3-.7-.2-.2-.1-.4.3-.5A3.437,3.437,0,0,1,9,5.7a2.015,2.015,0,0,1,1.6.7c.6.5,1.3.7,1.7.4a1.343,1.343,0,0,1-1.4.7,14.159,14.159,0,0,1,.4,2,6.882,6.882,0,0,0,.2,1.3,36.885,36.885,0,0,1,3.7.5h0a2.782,2.782,0,0,0,1.4-.9,2.937,2.937,0,0,0,.6-2.6,12.31,12.31,0,0,1-.2-2C17.2,4.6,18.1,3.9,19.4,3.2Z" transform="translate(17.7 9.2)"/><path class="a" d="M5.6,2.1c.2-.1.3-.3.6-.4,0-.5.1-1.1.1-1.7-.1,0-.1.1-.2.2A1.91,1.91,0,0,1,4.9.7,1.9,1.9,0,0,1,3.7.3,1.493,1.493,0,0,0,3,0a3.178,3.178,0,0,0-.9.3A1.82,1.82,0,0,1,1,.7,1.689,1.689,0,0,1,0,.4V2c.1,0,.1.1.2.1a1.33,1.33,0,0,0,.8.3,1.329,1.329,0,0,0,.7-.3,2.144,2.144,0,0,1,1.2-.4A1.82,1.82,0,0,1,4,2.1a1.33,1.33,0,0,0,.8.3A.984.984,0,0,0,5.6,2.1Z" transform="translate(27.2 27.5)"/><path class="a" d="M1,.9A1.689,1.689,0,0,1,0,.6v2A2.887,2.887,0,0,1,1,2l.6-.2a12.458,12.458,0,0,0,2.1-.7A2.01,2.01,0,0,0,4.5.7,2.471,2.471,0,0,1,3.6.3,1.493,1.493,0,0,0,2.9,0,3.178,3.178,0,0,0,2,.3,1.1,1.1,0,0,1,1,.9Z" transform="translate(27.2 32.3)"/><path class="a" d="M.2,5.5h0l0-.077C.1,3.779,0,2.08,0,.8A30.636,30.636,0,0,1,6.8,0a30.634,30.634,0,0,1,6.8.8c0,1.312-.088,2.8-.181,4.381L13.4,5.5a34.149,34.149,0,0,0-6.6-.7,34.059,34.059,0,0,0-6.6.7ZM11.7,4.2h0l.2.3-.1-.3.4-.1h-.4V3.7l-.1.3-.4-.1.3.2-.2.3.3-.2ZM1.6,3.9l.3.2-.1.4.3-.3.3.2-.2-.5.3-.2-.4.1L2,3.5v.4ZM10,4h0l.3.3.1-.2.3-.2h-.4l-.1-.4-.1.3-.4-.1L10,4ZM3.2,3.7l.3.2-.1.4L3.7,4l.3.2-.2-.3.4-.4-.4.1-.1-.3-.1.4ZM8.4,4h0l.3.2L8.6,4l.3-.2H8.5l-.1-.4-.1.3H7.9l.3.2-.1.3L8.4,4ZM6.8,3.9h0l.3.2L7,3.8l.3-.2H6.9l-.1-.4-.1.4H6.3l.3.2-.1.3.3-.2Zm-1.6,0h0l.3.2V3.7l.3-.2H5.4l-.1-.3-.1.4H4.8l.2.2-.1.3.3-.2Zm7.3-1h0l.2.3.1-.3.3-.1h-.4V2.4l-.2.3-.4-.1.3.2-.2.3.3-.2Zm-1.7-.2h0l.3.5L11,2.8l.3-.2h-.4V2.2l-.1.3-.4-.1.3.2-.2.3.3-.2ZM.7,2.7h0l.4.1L1,3.2l.3-.4.3.2-.2-.3.3-.2-.4.1-.2-.3v.4Zm1.7-.3.3.2L2.6,3l.2-.3h.4L3,2.4l.3-.2-.4.1L2.8,2v.4Zm6.8.1h0l.4.4-.1-.4.3-.2H9.4l-.1-.4-.1.3H8.8l.3.2-.2.3.3-.2ZM3.9,2.2l.3.2-.1.4.3-.3.4.1-.2-.3.3-.2H4.5l-.1-.3-.1.4ZM6,2.4H6l.4.3-.1-.3.3-.2H6.2l-.1-.4L6,2.2H5.6l.3.2-.1.3L6,2.4Zm1.6,0h0l.3.2-.1-.3.3-.1H7.7l-.1-.4-.1.3H7.1l.3.2-.1.3.3-.2Zm4.2-.8h0l.3.4L12,1.6l.3-.2h-.4V1l-.1.3-.4-.1.3.2-.2.3.3-.1ZM1.4,1.3l.3.2-.1.4.2-.3h.3l-.2-.3.3-.2-.4.1L1.7.9v.4Zm8.8.1h0l.3.3-.1-.4.3-.2h-.4L10.2.7l-.1.3H9.7l.3.2-.2.3.4-.1Zm-1.7,0h0l.3.2-.1-.4L9,1H8.6L8.5.6,8.4.9,8,1.1l.3.2-.1.3.3-.2ZM3.3,1.1l-.1.4.3-.3.3.2-.2-.3L3.9.9,3.5,1,3.4.7l-.1.4Zm3.5,0h0l.3.3L7,1.1,7.3.9H6.9L6.8.5,6.7.9,6.3.8l.3.2-.1.3.3-.2Zm-1.6,0h0l.3.2L5.3,1,5.6.8H5.2L5.1.5,5,.9,4.7.8,5,1l-.1.3.3-.2Z" transform="translate(20.2 20.3)"/><path class="a" d="M2,3.906A2.043,2.043,0,0,1,.138,2.753a2.076,2.076,0,0,1,1.1-2.6A2.5,2.5,0,0,1,2.1,0,1.911,1.911,0,0,1,3.938,1.153a2.075,2.075,0,0,1-1.1,2.6A2.458,2.458,0,0,1,2,3.906ZM2.419.645a1.982,1.982,0,0,0-.881.208c-.79.4-1.3,1.19-1.1,1.7a1.1,1.1,0,0,0,1.118.608,1.979,1.979,0,0,0,.882-.209,1.538,1.538,0,0,0,1.1-1.7A1.1,1.1,0,0,0,2.419.645Z" transform="translate(47.662 15.347)"/><path class="a" d="M.4,2.6,0,1,.2.9l.1.4L3.6.5,3.5.1,3.7,0l.6,2.4h.2l.1.3-.9.2-.1-.3L4,2.5,3.7,1.3l-1.3.4.2.9L3,2.5l.1.3L2,3.1l-.1-.3.4-.1-.2-.9L.6,2.2l.1.4Z" transform="translate(48.6 19.2)"/><path class="a" d="M1.4.1,1.2.5l2.2.6A1.386,1.386,0,0,1,4.5,2.2a2.769,2.769,0,0,1-.1.9c-.3.9-1,1.4-1.8,1.1L.3,3.5l-.1.4L0,3.8.5,2.2l.2.1-.1.4,2,.8c.6.2.9.1,1.1-.1A.536.536,0,0,0,4,3a1.035,1.035,0,0,0-.8-1.4L1.1,1,1,1.4.8,1.3,1.2,0Z" transform="translate(1 17.5)"/><path class="a" d="M.85.65a.365.365,0,0,1-.5.2.365.365,0,0,1-.2-.5.365.365,0,0,1,.5-.2C.85.15.95.45.85.65Z" transform="translate(5.25 17.85)"/><path class="a" d="M3.364,3.6l-.2.3-.9-.5.2-.3.4.2a1.024,1.024,0,0,0,.6-.5.524.524,0,0,0-.2-.8c-.2-.1-.5-.1-1.1.2s-.7.4-.9.4a1.7,1.7,0,0,1-.7-.1A1.135,1.135,0,0,1,.164.9a1.756,1.756,0,0,1,.4-.5L.464.3l.2-.3.9.5-.2.3L.964.6a1.082,1.082,0,0,0-.5.4.43.43,0,0,0,.2.7c.2.1.4.1,1-.3a5.2,5.2,0,0,1,.5-.3.9.9,0,0,1,.5-.1.735.735,0,0,1,.6.2,1.065,1.065,0,0,1,.4,1.6,1.7,1.7,0,0,1-.6.6Z" transform="translate(3.536 13.2)"/><path class="a" d="M.9.5A.43.43,0,0,1,.5.9.43.43,0,0,1,.1.5.43.43,0,0,1,.5.1.366.366,0,0,1,.9.5Z" transform="translate(7.5 13.6)"/><path class="a" d="M4.3,3.5,1.8,4.8l-.1-.2.4-.2L.5,1.3l-.4.2L0,1.3,2.2.2,2.1.1,2.4,0l.4.8L2.5.9,2.3.5l-1.1.6.6,1.3L2.6,2l-.2-.4.3-.2.5,1-.3.2-.2-.4-.9.4.7,1.3,1.2-.6-.1-.4.3-.1Z" transform="translate(13.4 2.9)"/><path class="a" d="M2.9,3.874l-1.6.5-.1-.2.4-.1L.5.774l-.4.1L0,.674l1.8-.6a1.081,1.081,0,0,1,1.5.7,1.413,1.413,0,0,1-.8,1.6.367.367,0,0,0-.3.1l-.1-.3h.2c.4-.1.5-.5.3-1s-.5-.7-.9-.6l-.3.1,1.1,3.2.5-.2Z" transform="translate(17.2 1.626)"/><path class="a" d="M0,4.4H0V4.2l.4-.1.9-4L1.7,0,3.8,3.5H4v.2L2.6,4V3.8L3,3.7l-.7-.8L.9,3.1l-.2,1L1.2,4v.2L0,4.4ZM1.4,1h0L1.1,2.6l1.1-.2L1.4,1Z" transform="translate(21 0.7)"/><path class="a" d="M3.8,4.1H3c-.3,0-.406-.11-.6-.4L1.5,2.3H1.3V3.8h.4V4H0V3.7H.5V.3H0V0H1.8a1.332,1.332,0,0,1,1,.3,1.133,1.133,0,0,1,.3.8.987.987,0,0,1-.8,1.1l.8,1.3c.1.2.2.3.3.3h.2l.2.3ZM1.2.4V2h.4a.715.715,0,0,0,.7-.8A.715.715,0,0,0,1.6.4Z" transform="translate(25.5 0.4)"/><path class="a" d="M2.1,4.5.2,4.2V4l.6.1L1.4.8.4.6l-.1.5L0,1,.2,0,.5.1V.3L3.3.8V.6h.3l-.2,1-.3-.1L3.2,1,2.2.8,1.6,4.1l.6.1Z" transform="translate(29.7 0.4)"/><path class="a" d="M4.6,5.4,2.9,4.8,3,4.6l.5.2.9-2.4L2.2,4.5,1.9,1.3,1,3.7l.5.2-.1.2L0,3.6l.1-.2.5.2L1.8.4,1.3.2,1.4,0l1,.4.3,3.1L4.9,1.4,6,1.8,5.9,2l-.5-.2L4.2,5l.5.2Z" transform="translate(32.8 1.4)"/><path class="a" d="M2.4,4.9,0,3.4l.1-.2.4.2L2.4.5,2,.3,2.1,0,4.2,1.3l.1-.1.3.2-.5.8L3.8,2,4,1.6,3,.9,2.2,2.2l.8.5.2-.3.3.2-.6,1-.3-.2L2.8,3,2,2.5,1.2,3.7l1.1.7L2.5,4l.3.2Z" transform="translate(37.9 3.8)"/><path class="a" d="M2.8,4.321h0a.358.358,0,0,1-.15-.05.357.357,0,0,0-.15-.05l-2-2.8-.4.3-.1-.2L1.5.421A1.936,1.936,0,0,1,2.7,0,2.041,2.041,0,0,1,4.3.821a1.708,1.708,0,0,1,.3,1.6,1.637,1.637,0,0,1-.8,1.2l-1,.7Zm-.5-3.7a1.246,1.246,0,0,0-.695.2l-.4.3,1.9,2.6.4-.3A1.382,1.382,0,0,0,4,2.469a1.566,1.566,0,0,0-.4-1.148A1.626,1.626,0,0,0,2.295.617Z" transform="translate(9.5 5.479)"/><path class="a" d="M4.8,1.7l-.2.2.3.3L3.2,4.1,3.6.8,2.7,0,2.5.2l.3.3L2.7.9.6,3.2.2,2.9,0,3.1,1,4l.2-.2L.9,3.5,2.7,1.6,2.3,4.7l1.2-.3h.1L5.1,2.7l.4.3.2-.2Z" transform="translate(40.6 6.2)"/><path class="a" d="M4.5,2.6l-.1.1L2.7.4,2.8.3,2.6,0,1.8.6,2,.9,2.4.6l.6.8L.3,3.4H.2a.349.349,0,0,0-.2.1L1,4.8l.2-.2L.9,4.1l2.7-2,.6.8-.4.3.2.3.8-.6Z" transform="translate(44.9 9.6)"/><path class="a" d="M1.019,4.5l-.3.1-.2-1.1.3-.1.1.4a.783.783,0,0,0,.8.1c.4-.1.6-.4.5-.7s-.3-.4-.9-.6a2.507,2.507,0,0,1-.9-.4c-.2-.1-.3-.4-.4-.6a1.069,1.069,0,0,1,1-1.3,1.634,1.634,0,0,1,.7,0V.1l.3-.1.2,1-.3.1-.1-.4a1.7,1.7,0,0,0-.7-.1c-.3.1-.5.3-.4.6.1.2.2.3.9.6a3.933,3.933,0,0,0,.6.2,1.38,1.38,0,0,1,.4.3,1.141,1.141,0,0,1,.3.6,1.156,1.156,0,0,1-.9,1.4,1.388,1.388,0,0,1-.9,0Z" transform="translate(30.981 48.8)"/><path class="a" d="M4.1,3.8l-2.6,1-.1-.2.4-.2L.5,1.2l-.4.2L0,1.2,2.3.3,2.2.1,2.5,0l.3.9L2.5,1,2.3.6l-1.2.5.5,1.3.9-.3-.1-.4.3-.1.4,1.1-.3.1-.2-.4-.9.3.5,1.4,1.2-.5-.2-.4.3-.1Z" transform="translate(33.9 47.6)"/><path class="a" d="M4.208,3.2a4.3,4.3,0,0,1-1,.9,1.985,1.985,0,0,1-2.9-.6,1.993,1.993,0,0,1,.7-2.8,1.689,1.689,0,0,1,1-.3l-.1-.2.3-.2.6.9-.3.2-.2-.3a1.344,1.344,0,0,0-.9.2c-.7.4-.8,1.3-.3,2.2a1.581,1.581,0,0,0,2.1.7,1.724,1.724,0,0,0,.6-.6l-.2-.4.3-.2Z" transform="translate(37.792 45.7)"/><path class="a" d="M3.2.2,2.8.5,4.3,2.2a1.307,1.307,0,0,1,.4,1.5,1.794,1.794,0,0,1-.5.7,1.379,1.379,0,0,1-2.1.1L.5,2.7.2,3,0,2.8,1.2,1.7l.2.2-.3.3L2.6,3.8c.4.4.7.6,1,.5.2,0,.3-.1.4-.3a1.045,1.045,0,0,0,.1-1.6L2.6.8l-.4.3L2,.9,3,0Z" transform="translate(40.6 42.6)"/><path class="a" d="M4.2,1.9,3.4,3.4l-.2-.1.2-.4L.4,1.3l-.2.3L0,1.5.8,0,1,.1.8.5l3,1.6L4,1.7Z" transform="translate(46.3 37.4)"/><path class="a" d="M4.8,2.2,4.1,4l-.2-.1.2-.5L1,2.2l-.4,1,.5.2L1,3.7,0,3.3.1,3l.2.1L1.3.4,1.1.3,1.2,0l1,.4L2.1.7,1.6.5l-.4,1L4.3,2.7l.2-.5Z" transform="translate(47.3 33.5)"/><path class="a" d="M4.3,1.7,4,3.3H3.8l.1-.4L2.2,2.5l-2,.9v.3H0L.3,2.1H.5l-.1.4,1.4-.6L.7.9l-.1.5H.4L.7,0H.9L.8.4,2.2,1.7,4,2l.1-.4Z" transform="translate(48.8 29.6)"/><path class="a" d="M3.2,4.439h0l-.2-.1.3-.4L.5,1.84l-.3.4-.2-.1L1.1.639c.306-.406.5-.6.8-.6A.7.7,0,0,1,2.124,0,1.053,1.053,0,0,1,2.7.239a1.024,1.024,0,0,1,.3,1.3l1.6.1c.2,0,.3,0,.4-.1l.1-.2.3.2-.5.6c-.3.3-.3.3-.7.3l-1.7-.1-.1.1,1.2.9.3-.4.3.2-1,1.3ZM1.742.758a.779.779,0,0,0-.543.282l-.2.3,1.2.9.2-.3a.541.541,0,0,0,.173-.426A.832.832,0,0,0,2.2.94.766.766,0,0,0,1.742.758Z" transform="translate(44 40.061)"/><path class="a" d="M1.1,5.2.7,3.6l.2-.1.1.4,1.5-.4L2,1.6.5,2l.1.4-.2.1L0,.9.2.8l.2.5L3.7.5,3.6.1,3.8,0l.4,1.6L4,1.7V1.2l-1.5.4L3,3.5l1.4-.4-.1-.4.2-.1.4,1.6-.2.1-.1-.4-3.3.8.1.4Z" transform="translate(0.6 29.8)"/><path class="a" d="M1.992,3.931A2,2,0,0,1,.2,2.815,1.783,1.783,0,0,1,.134,1.328,2.181,2.181,0,0,1,1.2.215,2.287,2.287,0,0,1,2.145,0,1.939,1.939,0,0,1,3.9,1.115,1.784,1.784,0,0,1,3.959,2.6,2.179,2.179,0,0,1,2.9,3.715,2,2,0,0,1,1.992,3.931ZM2.508.7A2.048,2.048,0,0,0,1.6.915C.806,1.31.292,2.1.5,2.615a1.138,1.138,0,0,0,1.089.513A2.047,2.047,0,0,0,2.5,2.915a1.9,1.9,0,0,0,1.033-.98.95.95,0,0,0,.067-.72A1.136,1.136,0,0,0,2.508.7Z" transform="translate(2.404 34.985)"/><path class="a" d="M2.7,6.2l-1-1.4.2-.2.3.4L4.3,3.5l-3.1.6L2.7,1.3.7,2.8l.3.4-.2.1L0,2.2l.2-.1.3.4L3.3.5,3,.1,3.2,0l.6.9L2.4,3.7l3-.6.7,1-.2.1-.3-.4-2.8,2,.3.4Z" transform="translate(4.1 38.2)"/><path class="a" d="M2.1,4.8,0,2.9l.2-.2L.5,3,2.8.5,2.5.2,2.7,0,4.5,1.7l.1-.1.2.2-.6.6L4,2.2l.3-.3-.9-.8-1,1,.7.6.3-.3.2.2-.8.9-.2-.2L2.9,3l-.7-.7-1,1.1,1,.9L2.5,4l.2.2Z" transform="translate(7.8 42.7)"/><path class="a" d="M2.3,4.9,0,3.3l.1-.2.4.3L2.4.5,2,.2,2.1,0,3.5.9l-.1.2L3,1,1.1,3.8l1.1.7.2-.4.3.2Z" transform="translate(11.2 45)"/><path class="a" d="M3.6,4.5h0L2.3,3.9l.1-.2.4.2.1-1L1.6,2.3.8,3l.4.2-.1.2L0,2.9l.2-.3.3.2L3.5,0l.3.2L3.6,4.3l.2.1-.2.1ZM3.1.9h0L1.9,2,3,2.5,3.1.9Z" transform="translate(14 47.4)"/><path class="a" d="M3.2,4.7l-.4-.1L1.5,1.3.9,3.8l.5.1-.1.2L0,3.8l.1-.2.5.1L1.3.6,1.2.3.8.2.9,0,2.1.3,3.3,3.4,3.9,1,3.3.8,3.4.6,4.7.9l-.1.2L4.1,1Z" transform="translate(18.7 48.5)"/><path class="a" d="M1.9,4.1h0L0,4V3.7H.5L.6.3H.1V0L2,.1A2.091,2.091,0,0,1,4,2.2a2.08,2.08,0,0,1-.7,1.4A1.742,1.742,0,0,1,1.9,4.1ZM1.3.4,1.2,3.7h.5A1.477,1.477,0,0,0,3.1,2.1,1.573,1.573,0,0,0,1.8.4Z" transform="translate(23.8 49.4)"/><path class="a" d="M19,23A17.788,17.788,0,0,1,5.6,16.8l.1-.1a2.014,2.014,0,0,0,.283-2.258A4.123,4.123,0,0,1,5.8,13.7a4.237,4.237,0,0,0,.072.659A2.769,2.769,0,0,1,5.5,16.6a.983.983,0,0,1-.2.251.984.984,0,0,0-.2.249,2.57,2.57,0,0,1-.4-1.7c0-.1-.1-.2-.2-.3a2.017,2.017,0,0,1-.8.4,2.173,2.173,0,0,1,.2-1.4.766.766,0,0,0-.2-.4,5.025,5.025,0,0,1-.6.1,5.034,5.034,0,0,0-.6.1,2.308,2.308,0,0,1,.7-1.1,2.157,2.157,0,0,1-.42.039A3.267,3.267,0,0,1,1.6,12.6l.1-.068A3.039,3.039,0,0,1,2.8,12l0,0a.313.313,0,0,1-.095-.2,2.381,2.381,0,0,1-.334.025A2.5,2.5,0,0,1,.7,11.1a2.9,2.9,0,0,1,1.6-.3A2.471,2.471,0,0,1,.4,9.7a5.086,5.086,0,0,1,.825-.075A2.8,2.8,0,0,1,1.9,9.7a.661.661,0,0,0-.063-.269A.362.362,0,0,1,1.8,9.3C1.021,9.2.407,9.125,0,7.7a2.53,2.53,0,0,1,1.6.4,1.978,1.978,0,0,0-.05-.35A1.977,1.977,0,0,1,1.5,7.4,1.983,1.983,0,0,1,.6,5.8a3.409,3.409,0,0,0-.1-1,2.662,2.662,0,0,0,.553.406A5.217,5.217,0,0,1,1.5,5.5a16.808,16.808,0,0,1,.7-5h.009A8.432,8.432,0,0,0,4.1.3a3.519,3.519,0,0,0-1.3,2,2.034,2.034,0,0,0,.284.019A3.922,3.922,0,0,0,5.2,1.6a4.313,4.313,0,0,0-1,2.2,4.809,4.809,0,0,0,2.1-.9,6.971,6.971,0,0,0-.8,2,3.554,3.554,0,0,0,2.1-1,4.7,4.7,0,0,0-.5,2.2A3.085,3.085,0,0,0,9,5.2a4.374,4.374,0,0,0-.3,2.2A2.543,2.543,0,0,0,10.5,6a3.178,3.178,0,0,0-.2,2.1,2.576,2.576,0,0,0,1.5-1.4,3.857,3.857,0,0,0-.1,2.1,1.912,1.912,0,0,0,.8-.4v.4a3.194,3.194,0,0,0,.3,1.4c-.1,0-.2.193-.2.2a4.322,4.322,0,0,1-.9.621c-.1.057-.2.115-.3.178a.712.712,0,0,1,.3.1.712.712,0,0,0,.3.1,1.333,1.333,0,0,1-.554.369,1.932,1.932,0,0,0-.546.33.464.464,0,0,1,.236.085.669.669,0,0,0,.364.116,4.589,4.589,0,0,1-1.6.6H9.1a.936.936,0,0,0-.227-.027A1.094,1.094,0,0,0,8.2,13.1a.4.4,0,0,0-.2.4.43.43,0,0,0-.194-.041A.644.644,0,0,0,7.4,13.6a.454.454,0,0,0,0,.5c.018.037.033.07.047.1.06.133.09.2.254.2h.188a.1.1,0,0,0-.088.1.318.318,0,0,1-.011.072c-.019.082-.041.175.111.328a.685.685,0,0,0,.4.239.136.136,0,0,0,.1-.039l.043-.043c-.043.049-.043.067-.043.142,0,.163.067.193.2.253.03.013.063.028.1.047a.6.6,0,0,0,.326.115A.381.381,0,0,0,9.3,15.5a.58.58,0,0,0,0-.7v.3a.63.63,0,0,0-.064.078A.238.238,0,0,1,9,15.3a.6.6,0,0,1-.4-.1v-.3c0-.1,0-.1.1-.2a.525.525,0,0,1-.15.1.523.523,0,0,0-.151.1.187.187,0,0,1-.3,0c-.1-.1-.2-.2-.2-.3-.073-.147.066-.238.189-.318A.734.734,0,0,0,8.2,14.2l-.012,0a.667.667,0,0,0-.293.056A.45.45,0,0,1,7.7,14.3c-.2-.1-.2-.4-.2-.5a.214.214,0,0,1,.2-.2H8c0,.1,0,.2.2.3a.292.292,0,0,0,.1.072.624.624,0,0,1,0-.072.6.6,0,0,1-.11-.429.214.214,0,0,1,.11-.17.865.865,0,0,1,.6-.2h.8c.1,0,.4,0,.5.1a.514.514,0,0,1,.074.183c.053.181.125.428.342.428A.353.353,0,0,0,10.7,13.8a4.5,4.5,0,0,0,1.7-.5,1.416,1.416,0,0,0-.1.3,1.415,1.415,0,0,1-.1.3,2.239,2.239,0,0,0,.649-.349,2.239,2.239,0,0,1,.651-.35,1.416,1.416,0,0,0-.1.3,1.415,1.415,0,0,1-.1.3,2.579,2.579,0,0,0,.714-.306A4.149,4.149,0,0,1,14.9,13.1H15a1.416,1.416,0,0,0,.3.1,1.415,1.415,0,0,1,.3.1,5.19,5.19,0,0,0-1.1,2.1,2.474,2.474,0,0,0,.8-.2,5.814,5.814,0,0,0-.2,1.4,3.76,3.76,0,0,0,.9-.4,7.68,7.68,0,0,0,.1,1.5,3.389,3.389,0,0,0,1-.7,8.471,8.471,0,0,0,.4,1.5,4.021,4.021,0,0,0,.8-.9A4.937,4.937,0,0,0,19,19a10.073,10.073,0,0,0,.7-1.5,3.937,3.937,0,0,0,.8.9,8.361,8.361,0,0,0,.4-1.5,6.034,6.034,0,0,0,1,.7,7.623,7.623,0,0,0,.1-1.5,3.733,3.733,0,0,0,.9.4,5.822,5.822,0,0,0-.2-1.4,2.436,2.436,0,0,0,.8.2,4.341,4.341,0,0,0-1.1-2,1.441,1.441,0,0,1,.35-.1,1.45,1.45,0,0,0,.35-.1h.1a4.143,4.143,0,0,1,.885.393,2.576,2.576,0,0,0,.715.307,1.406,1.406,0,0,1-.1-.3,1.415,1.415,0,0,0-.1-.3,2.2,2.2,0,0,1,.518.316,1.665,1.665,0,0,0,.783.383,1.415,1.415,0,0,1-.1-.3,1.416,1.416,0,0,0-.1-.3,5.306,5.306,0,0,0,1.019.3,2.953,2.953,0,0,1,.68.2.6.6,0,0,0,.143.02c.2,0,.253-.148.305-.292A1.229,1.229,0,0,1,27.9,13.4a.318.318,0,0,1,.3-.3h.9a.824.824,0,0,1,.6.2.4.4,0,0,1,.112.337.467.467,0,0,1-.112.262h.1c.1-.1.2-.2.2-.3v-.1h.3a.216.216,0,0,1,.2.2c0,.1-.1.4-.3.4a.746.746,0,0,1-.251-.05A.744.744,0,0,0,29.7,14l.019.008a1.032,1.032,0,0,1,.243.154A.187.187,0,0,1,30,14.4c0,.1-.1.2-.2.3a.187.187,0,0,1-.3,0c-.1-.1-.2-.2-.3-.2.1.1.1.1.1.2a.189.189,0,0,1,0,.3.786.786,0,0,0-.2.05.777.777,0,0,1-.2.05.319.319,0,0,1-.3-.3v-.3a.577.577,0,0,0,0,.7.282.282,0,0,0,.278.166A1.043,1.043,0,0,0,29.2,15.3a.266.266,0,0,0,.3-.3v-.19a.1.1,0,0,0,.1.09.32.32,0,0,0,.143.039c.118,0,.213-.1.357-.24s.132-.246.112-.328A.318.318,0,0,1,30.2,14.3l-.1-.1h.2c.163,0,.193-.067.253-.2.013-.03.028-.063.047-.1.1-.3.1-.4,0-.5a1.016,1.016,0,0,0-.3-.1l5.2-4.1v.4l.9-1.2L35,9l.2.1L30,13.2l-.1.1a.373.373,0,0,0-.1-.3L33,6.5l.2.3.3-1.5-1,1.2.4-.1-3.2,6.5a1.885,1.885,0,0,0-.8-.2,1.017,1.017,0,0,1-.318.044,2.629,2.629,0,0,1-.364-.031A1.1,1.1,0,0,0,28.1,12.7a1.965,1.965,0,0,1-1.4-.5l.008,0A.464.464,0,0,0,27,12.1a.474.474,0,0,1,.3-.1,2.073,2.073,0,0,0-.55-.35,2.073,2.073,0,0,1-.55-.35l0,0h.007a.7.7,0,0,0,.295-.1.715.715,0,0,1,.3-.1,4.183,4.183,0,0,1-1.2-.9l-.2-.2a3.192,3.192,0,0,0,.3-1.4V8.2a2.612,2.612,0,0,0,.9.5,3.127,3.127,0,0,0-.2-2.1,2.389,2.389,0,0,0,1.5,1.3,3.705,3.705,0,0,0-.2-2.1,2.85,2.85,0,0,0,1.8,1.4,4.132,4.132,0,0,0-.3-2.1,3.336,3.336,0,0,0,1.9.9,3.691,3.691,0,0,0-.5-2.2,3.357,3.357,0,0,0,2,1.1,3.213,3.213,0,0,0-.7-2.2,3.582,3.582,0,0,0,2.2.9,2.883,2.883,0,0,0-.995-2.2,3.274,3.274,0,0,0,1.949.658A2.262,2.262,0,0,0,35.6,2a2.788,2.788,0,0,0-1.5-2c.069.017.149.04.241.067A5.153,5.153,0,0,0,35.766.32,2.708,2.708,0,0,0,36.1.3a20.683,20.683,0,0,1,.7,5.1v.7l.6-.7H37l1.2-.7L37.5,6l-.1-.4-.8.9a3.771,3.771,0,0,1-.05.551l-.011.08L35.4,7.7l.4.1-3.1,2.8c-.15.15-.277.3-.4.449s-.25.3-.4.451a5.446,5.446,0,0,0,.452-.351A5.478,5.478,0,0,1,32.8,10.8l3-2.8v.4l.707-.99c0,.061-.007.122-.007.19l.6-.5L36.8,7l1.4-.6-.9,1.2V7.2l-.8.7a2.767,2.767,0,0,1-.1.9l.5-.3-.3-.1,1.5-.5L37,9.1V8.7l-.7.4a.776.776,0,0,1-.05.2.781.781,0,0,0-.05.2L35,9.9l.3.1-3.1,2a2.628,2.628,0,0,1-.3.251,2.645,2.645,0,0,0-.3.249,3.122,3.122,0,0,1,.5-.249A3.105,3.105,0,0,0,32.6,12l2.9-1.9v.4l.8-.8a.777.777,0,0,1-.05.2.777.777,0,0,0-.05.2l.7-.4-.3-.1,1.5-.4L37,10.3V9.9l-.9.5c-.1.1-.1.1-.1.2l-1.1.2.3.2-4.3,2.2a.351.351,0,0,0-.2.1.1.1,0,0,1,.1.1l4.4-2.2-.1.4.7-.6a.782.782,0,0,1-.05.2,1.229,1.229,0,0,0-.046.161l-.1.039a17.685,17.685,0,0,1-6.388,8.35A17.544,17.544,0,0,1,19,23Zm8-4.3h0l.1.5.9-1.8v-.3l.8-1.6a.353.353,0,0,1-.2-.1L27.8,17l-.3.1-.9,1.7.4-.1ZM9.7,14.3h0a.521.521,0,0,0-.2.4,5.323,5.323,0,0,1,1.9,3.2,2.345,2.345,0,0,1,.8.2,6.727,6.727,0,0,0-2.5-3.8Zm15.8,2-.2.1-1.5.9.4.1.1.3,1.2-.9h.2l1.9-1.3a3.821,3.821,0,0,1,.5-.6l-2.3,1.5-.3-.1ZM27,16h0l-1.4,1.4H26v.3l1.2-1.4h.2l.9-1.1v-.3l-1,1.1H27Zm-1.5-.4-1.8.8.6.3v.2l.7-.5.7-.5h.2c.016-.009,1.7-1,2.1-1.3l-2.2,1.1ZM5.7,13.9a1.694,1.694,0,0,0-.6.9,2.777,2.777,0,0,0-.2,1.8A5.936,5.936,0,0,1,5.7,13.9Zm-.606-.481a1.153,1.153,0,0,0-.243.167L4.7,13.7a2.635,2.635,0,0,0-.9,1.5A5.541,5.541,0,0,1,5,13.6c.078-.116.105-.166.1-.178A.006.006,0,0,0,5.094,13.419ZM9,14.2H9a.369.369,0,0,1-.1.3.555.555,0,0,0-.082.109c-.033.053-.056.091-.118.091a.369.369,0,0,0,.3.1c.1,0,.1,0,.1-.1a1.207,1.207,0,0,0-.063-.331A.713.713,0,0,1,9,14.2Zm19.9-.1h0a.713.713,0,0,1-.037.168,1.207,1.207,0,0,0-.063.331c0,.1,0,.1.1.1a.369.369,0,0,0,.3-.1c0-.062-.038-.085-.091-.118A.555.555,0,0,1,29,14.4a.357.357,0,0,0-.05-.15.357.357,0,0,1-.05-.15ZM8.3,13.971a.456.456,0,0,0,.5.429.627.627,0,0,1,0-.6H8.737a.643.643,0,0,0-.437.1c.023.022.047.053.04.068s-.007.008-.015.008A.069.069,0,0,1,8.3,13.971ZM29.1,13.7v.6c.317,0,.4-.328.4-.5A.606.606,0,0,0,29.1,13.7ZM9.161,13.684c-.029,0-.061.06-.061.115,0,.1-.094.2-.3.2a.377.377,0,0,0,.17.044.452.452,0,0,0,.136-.025A.332.332,0,0,1,9.2,14c.1-.1.1-.1,0-.2a.173.173,0,0,0-.023-.108A.021.021,0,0,0,9.161,13.684ZM6.4,13.3c-.206,0-.3.207-.3.4s.207.3.4.3.3-.208.3-.4S6.593,13.3,6.4,13.3Zm22.186.158a.122.122,0,0,0-.085.041c0,.144,0,.239.039.278a.081.081,0,0,0,.061.021.3.3,0,0,0,.4,0c-.206,0-.3-.1-.3-.2a.161.161,0,0,0-.033-.1A.1.1,0,0,0,28.586,13.459ZM4.8,12.5a.52.52,0,0,0-.2.4,2.567,2.567,0,0,0-1.9.7,4.961,4.961,0,0,1,1.9-.7.524.524,0,0,0,.4.2.526.526,0,0,0,.2-.4A.522.522,0,0,0,4.8,12.5Zm2.5.3a.238.238,0,0,0-.225.138A.144.144,0,0,0,7.1,13.1a.167.167,0,0,0,.051.117A.335.335,0,0,0,7.4,13.3c.1,0,.2-.094.2-.3C7.6,12.9,7.506,12.8,7.3,12.8Zm-1.6-.1c-.1,0-.2.195-.2.3s.195.2.3.2c.2,0,.2-.1.2-.3C6,12.8,5.8,12.7,5.7,12.7ZM36.4,6.1l-1.3.8h.4l-5.2,5.7a.357.357,0,0,1-.05.15.357.357,0,0,0-.05.15l.012-.014c.1-.1.292-.286.388-.286l5-5.5.1.4.7-1.4ZM6.5,12.2c-.206,0-.3.207-.3.4s.207.3.4.3.3-.207.3-.4S6.693,12.2,6.5,12.2Zm-2.4.1h0v.1c0,.1.195.2.3.2s.2-.195.2-.3-.195-.2-.3-.2-.2,0-.2.1H4.086A5.013,5.013,0,0,0,2,12.6,7.661,7.661,0,0,1,4.1,12.3Zm1-.8c-.207,0-.3.207-.3.4s.208.3.4.3.276-.175.295-.325l0,.008,0,.017a1,1,0,0,0,.4-.5.87.87,0,0,1,.1.5A2.372,2.372,0,0,1,7.1,9.8a5.544,5.544,0,0,0-1,2.3,3.242,3.242,0,0,1,.328-.273A2.785,2.785,0,0,0,7.6,9.3a2.32,2.32,0,0,0-1.4,1c0-.163-.01-.323-.021-.492A4.615,4.615,0,0,1,6.2,8.7a2.407,2.407,0,0,0-1,2.8Zm-1.545-.1a.368.368,0,0,0-.255.4c0,.206.207.3.4.3s.3-.207.3-.4-.207-.3-.4-.3l-.033,0ZM34,6.5l-1.1,1h.4l-2,3.1a10.052,10.052,0,0,1-.486.992c-.078.145-.151.281-.214.408l2.8-4.3.1.3ZM4.4,8.9h0a10.984,10.984,0,0,0-.1,2.6,2.071,2.071,0,0,1,.295-.594c.346-.547.739-1.166.005-2.706a2.158,2.158,0,0,0-.9,2.1H3.6c-.1,0-.2.094-.2.3,0,.1.094.2.3.2h.1a2.206,2.206,0,0,0,.15.25,2.237,2.237,0,0,1,.15.25,1.289,1.289,0,0,0-.043-.28A1.816,1.816,0,0,1,4,10.6v-.1A2.671,2.671,0,0,1,4.4,8.9ZM2.276,11.062A3.368,3.368,0,0,0,1.8,11.1c.682.1,1.18.2,1.662.293L3.5,11.4A2.575,2.575,0,0,0,2.276,11.062ZM1.2,9.9h0c.072.035.237.1.446.177.368.14.872.331,1.254.522v.2c0,.1.2.2.3.2s.2-.195.2-.3-.2-.2-.3-.2a.351.351,0,0,0-.2.1A2.121,2.121,0,0,0,1.2,9.9ZM36.5,4.6l-1.2.9.4.1L32.4,9.8c-.15.2-.277.4-.4.6-.085.137-.174.278-.269.416a5.094,5.094,0,0,1,.458-.506L32.2,10.3l3.7-4.6L36,6ZM2.9,9.6c-.206,0-.3.207-.3.4s.207.3.4.3.3-.207.3-.4A.536.536,0,0,0,2.9,9.6ZM.4,8h0A8.348,8.348,0,0,1,2.1,9.1c-.094.094-.2.2-.2.3s.195.2.3.2.2-.207.2-.3a.214.214,0,0,0-.2-.2A2.564,2.564,0,0,0,.4,8ZM3.9,6.5a2.321,2.321,0,0,0-1.1,3,3.057,3.057,0,0,1,.474-.546A2.1,2.1,0,0,0,3.9,6.5ZM.8,5.4c.435.653.933,1.458,1.3,2.1h0c-.1,0-.2.195-.2.3a.522.522,0,0,0,.4.2.522.522,0,0,0,.2-.4.522.522,0,0,0-.4-.2A2.831,2.831,0,0,0,.8,5.4Zm1.8-.6h0A5.288,5.288,0,0,0,2,6.3a1.494,1.494,0,0,1,.2.9,2.536,2.536,0,0,0,.6-2.8A1.839,1.839,0,0,0,1.7,5.8a.532.532,0,0,1,.1.15.525.525,0,0,0,.1.15A2.354,2.354,0,0,1,2.6,4.8Zm2.882,6.973,0,0a.654.654,0,0,1-.057-.082c-.033-.053-.056-.091-.118-.091a2.625,2.625,0,0,1,.4-2.2l-.05.231-.005.023a5.623,5.623,0,0,0-.167,2.118ZM36.3,11.5v0l.1-.4-.4.15.3-.15-.3-.2,1.5-.4-1.2,1Z" transform="translate(8 21.6)"/></g></svg>